<svg width="16" height="12" viewBox="0 0 16 12" fill="none" xmlns="http://www.w3.org/2000/svg">
<path fill-rule="evenodd" clip-rule="evenodd" d="M2.13487 5.00001H14.3761C14.7213 5.00001 15.0011 5.27983 15.0011 5.62501C15.0011 5.97019 14.7213 6.25001 14.3761 6.25001H2.13487L6.06862 10.1825C6.313 10.4269 6.313 10.8231 6.06862 11.0675C5.82423 11.3119 5.428 11.3119 5.18362 11.0675L0.183617 6.06751C0.0660651 5.95025 0 5.79104 0 5.62501C0 5.45898 0.0660651 5.29977 0.183617 5.18251L5.18362 0.18251C5.34171 0.0244203 5.57213 -0.0373209 5.78808 0.0205441C6.00404 0.078409 6.17272 0.247089 6.23058 0.463044C6.28845 0.678999 6.22671 0.90942 6.06862 1.06751L2.13487 5.00001Z" fill="white"/>
</svg>
