<svg width="20" height="22" viewBox="0 0 20 22" fill="none" xmlns="http://www.w3.org/2000/svg">
<path d="M15.3556 6.6V6.8H15.5556H18.8889C19.3948 6.8 19.8 7.20405 19.8 7.7V19.8C19.8 20.901 18.8948 21.8 17.7778 21.8H2.22222C1.10522 21.8 0.2 20.901 0.2 19.8V7.7C0.2 7.20405 0.605224 6.8 1.11111 6.8H4.44444H4.64444V6.6V5.5C4.64444 2.57965 7.04522 0.2 10 0.2C12.9548 0.2 15.3556 2.57965 15.3556 5.5V6.6ZM13.3333 6.8H13.5333V6.6V5.5C13.5333 3.56825 11.9463 2 10 2C8.05367 2 6.46667 3.56825 6.46667 5.5V6.6V6.8H6.66667H13.3333ZM2.22222 8.6H2.02222V8.8V19.8V20H2.22222H17.78H17.98L17.98 19.8L17.9778 8.79996L17.9777 8.6H17.7778H15.5556H15.3556V8.8V9.88889C15.3556 10.3921 14.9476 10.8 14.4444 10.8C13.9413 10.8 13.5333 10.3921 13.5333 9.88889V8.8V8.6H13.3333H6.66667H6.46667V8.8V9.88889C6.46667 10.3921 6.05875 10.8 5.55556 10.8C5.05236 10.8 4.64444 10.3921 4.64444 9.88889V8.8V8.6H4.44444H2.22222Z" fill="#0B0A24" stroke="#F2F2F2" stroke-width="0.4"/>
</svg>
