<svg width="24" height="22" viewBox="0 0 24 22" fill="none" xmlns="http://www.w3.org/2000/svg">
<path fill-rule="evenodd" clip-rule="evenodd" d="M22 8.5C22 4.55 19.8538 2.25 16.375 2.25C14.52 2.25 13.2825 2.9575 12.5588 4.405C12.4528 4.61645 12.2365 4.74996 12 4.74996C11.7635 4.74996 11.5472 4.61645 11.4412 4.405C10.7175 2.9575 9.47875 2.25 7.625 2.25C4.14625 2.25 2 4.55 2 8.5C2 11.5 5.31125 15.2487 12 19.6287C18.6887 15.25 22 11.5 22 8.5ZM16.375 1C20.5625 1 23.25 3.87875 23.25 8.5C23.25 12.1175 19.59 16.2087 12.34 20.9C12.1332 21.0341 11.8668 21.0341 11.66 20.9C4.41 16.2087 0.75 12.1175 0.75 8.5C0.75 3.87875 3.4375 1 7.625 1C9.535 1 11.0125 1.65375 12 2.945C12.9875 1.65375 14.465 1 16.375 1Z" fill="#1A1A1A"/>
<path d="M12.5588 4.405L12.6258 4.43861L12.6258 4.43854L12.5588 4.405ZM11.4412 4.405L11.3742 4.43854L11.3742 4.43861L11.4412 4.405ZM12 19.6287L11.9589 19.6915L12 19.7184L12.0411 19.6915L12 19.6287ZM12.34 20.9L12.2993 20.837L12.2992 20.8371L12.34 20.9ZM11.66 20.9L11.7008 20.8371L11.7007 20.837L11.66 20.9ZM12 2.945L11.9404 2.99056L12 3.06846L12.0596 2.99056L12 2.945ZM22.075 8.5C22.075 6.51191 21.5348 4.92949 20.5475 3.8433C19.5595 2.75623 18.1316 2.175 16.375 2.175V2.325C18.0972 2.325 19.4818 2.89377 20.4365 3.9442C21.3921 4.99551 21.925 6.53809 21.925 8.5H22.075ZM16.375 2.175C15.4381 2.175 14.6514 2.35368 14.0057 2.71943C13.3593 3.08553 12.8593 3.63619 12.4917 4.37146L12.6258 4.43854C12.982 3.72631 13.4625 3.19947 14.0796 2.84995C14.6973 2.50007 15.4569 2.325 16.375 2.325V2.175ZM12.4917 4.37139C12.3984 4.55747 12.2081 4.67496 12 4.67496V4.82496C12.2649 4.82496 12.5071 4.67543 12.6258 4.43861L12.4917 4.37139ZM12 4.67496C11.7919 4.67496 11.6016 4.55747 11.5083 4.37139L11.3742 4.43861C11.4929 4.67543 11.7351 4.82496 12 4.82496V4.67496ZM11.5083 4.37146C11.1407 3.63618 10.6403 3.08552 9.99383 2.71942C9.34795 2.35368 8.56128 2.175 7.625 2.175V2.325C8.54247 2.325 9.30205 2.50007 9.91992 2.84995C10.5372 3.19948 11.0181 3.72632 11.3742 4.43854L11.5083 4.37146ZM7.625 2.175C5.86842 2.175 4.44053 2.75623 3.45247 3.8433C2.46522 4.92949 1.925 6.51191 1.925 8.5H2.075C2.075 6.53809 2.60791 4.99551 3.56347 3.9442C4.51822 2.89377 5.90283 2.325 7.625 2.325V2.175ZM1.925 8.5C1.925 10.0272 2.76706 11.7318 4.43583 13.5969C6.10583 15.4634 8.61179 17.4997 11.9589 19.6915L12.0411 19.566C8.69946 17.3778 6.20542 15.3497 4.54761 13.4969C2.88857 11.6426 2.075 9.97281 2.075 8.5H1.925ZM12.0411 19.6915C15.3882 17.5003 17.8942 15.464 19.5642 13.5974C21.2329 11.7321 22.075 10.0272 22.075 8.5H21.925C21.925 9.97282 21.1114 11.6429 19.4524 13.4973C17.7946 15.3504 15.3005 17.3784 11.9589 19.566L12.0411 19.6915ZM16.375 1.075C18.4508 1.075 20.1485 1.788 21.3277 3.06785C22.5075 4.34835 23.175 6.2037 23.175 8.5H23.325C23.325 6.17505 22.6488 4.2804 21.438 2.96621C20.2265 1.65137 18.4867 0.925 16.375 0.925V1.075ZM23.175 8.5C23.175 10.2828 22.2729 12.1929 20.4575 14.2477C18.6427 16.3019 15.9215 18.4932 12.2993 20.837L12.3807 20.963C16.0085 18.6156 18.7423 16.4156 20.57 14.347C22.3971 12.2789 23.325 10.3347 23.325 8.5H23.175ZM12.2992 20.8371C12.1172 20.9551 11.8828 20.9551 11.7008 20.8371L11.6192 20.9629C11.8509 21.1131 12.1491 21.1131 12.3808 20.9629L12.2992 20.8371ZM11.7007 20.837C8.07848 18.4932 5.35731 16.3019 3.54246 14.2477C1.72708 12.1929 0.825 10.2828 0.825 8.5H0.675C0.675 10.3347 1.60292 12.2789 3.43004 14.347C5.25769 16.4156 7.99151 18.6156 11.6193 20.963L11.7007 20.837ZM0.825 8.5C0.825 6.2037 1.49255 4.34835 2.67235 3.06785C3.85154 1.788 5.5492 1.075 7.625 1.075V0.925C5.5133 0.925 3.77346 1.65137 2.56203 2.96621C1.3512 4.2804 0.675 6.17505 0.675 8.5H0.825ZM7.625 1.075C9.51641 1.075 10.9698 1.72135 11.9404 2.99056L12.0596 2.89944C11.0552 1.58615 9.55359 0.925 7.625 0.925V1.075ZM12.0596 2.99056C13.0302 1.72135 14.4836 1.075 16.375 1.075V0.925C14.4464 0.925 12.9448 1.58615 11.9404 2.89944L12.0596 2.99056Z" fill="#1A1A1A"/>
</svg>
