<svg width="12" height="13" viewBox="0 0 12 13" fill="none" xmlns="http://www.w3.org/2000/svg">
<path d="M12 6.04361V10C12 11.6569 10.6569 13 9 13H8.65C8.09772 13 7.65 12.5523 7.65 12V9.66667C7.65 9.11438 7.20228 8.66667 6.65 8.66667H5.35C4.79771 8.66667 4.35 9.11438 4.35 9.66667V12C4.35 12.5523 3.90228 13 3.35 13H3C1.34315 13 0 11.6569 0 10V6.04361C0 5.4583 0.256394 4.90237 0.701584 4.52239L4.70158 1.10824C5.4495 0.469873 6.5505 0.469873 7.29842 1.10824L11.2984 4.52239C11.7436 4.90237 12 5.4583 12 6.04361Z" fill="#FEC61C"/>
</svg>
