<svg width="6" height="20" viewBox="0 0 6 20" fill="none" xmlns="http://www.w3.org/2000/svg">
<path fill-rule="evenodd" clip-rule="evenodd" d="M2.375 1.25C2.02982 1.25 1.75 1.52982 1.75 1.875L1.75 3.125C1.75 3.47018 2.02982 3.75 2.375 3.75L3.625 3.75C3.97018 3.75 4.25 3.47018 4.25 3.125L4.25 1.875C4.25 1.52982 3.97018 1.25 3.625 1.25L2.375 1.25ZM2.375 -8.19589e-08L3.625 -1.36598e-07C4.66053 -1.81863e-07 5.5 0.839466 5.5 1.875L5.5 3.125C5.5 4.16053 4.66053 5 3.625 5L2.375 5C1.33947 5 0.499999 4.16053 0.499999 3.125L0.499999 1.875C0.499999 0.839466 1.33947 -3.66942e-08 2.375 -8.19589e-08ZM2.375 8.75C2.02982 8.75 1.75 9.02982 1.75 9.375L1.75 10.625C1.75 10.9702 2.02982 11.25 2.375 11.25L3.625 11.25C3.97018 11.25 4.25 10.9702 4.25 10.625L4.25 9.375C4.25 9.02982 3.97018 8.75 3.625 8.75L2.375 8.75ZM2.375 7.5L3.625 7.5C4.66053 7.5 5.5 8.33947 5.5 9.375L5.5 10.625C5.5 11.6605 4.66053 12.5 3.625 12.5L2.375 12.5C1.33947 12.5 0.5 11.6605 0.5 10.625L0.5 9.375C0.499999 8.33947 1.33947 7.5 2.375 7.5ZM2.375 16.25C2.02982 16.25 1.75 16.5298 1.75 16.875L1.75 18.125C1.75 18.4702 2.02982 18.75 2.375 18.75L3.625 18.75C3.97018 18.75 4.25 18.4702 4.25 18.125L4.25 16.875C4.25 16.5298 3.97018 16.25 3.625 16.25L2.375 16.25ZM2.375 15L3.625 15C4.66053 15 5.5 15.8395 5.5 16.875L5.5 18.125C5.5 19.1605 4.66053 20 3.625 20L2.375 20C1.33947 20 0.5 19.1605 0.5 18.125L0.5 16.875C0.5 15.8395 1.33947 15 2.375 15Z" fill="white"/>
</svg>
