<svg width="21" height="21" viewBox="0 0 21 21" fill="none" xmlns="http://www.w3.org/2000/svg">
<path d="M14.6193 15.924L14.4944 15.7992L14.3551 15.9075C12.8684 17.0637 11.0061 17.7602 8.9806 17.7602C4.13937 17.7602 0.2 13.8211 0.2 8.98011C0.2 4.13917 4.13937 0.2 8.9806 0.2C13.8218 0.2 17.7612 4.13917 17.7612 8.98011C17.7612 11.0055 17.0646 12.8676 15.9073 14.3554L15.7989 14.4948L15.9237 14.6196L20.0649 18.7605C20.4251 19.1207 20.4251 19.7048 20.0649 20.065C19.7047 20.4252 19.1207 20.4252 18.7605 20.065L14.6193 15.924ZM15.916 8.98011C15.916 5.15525 12.8056 2.04503 8.9806 2.04503C5.15555 2.04503 2.04515 5.15525 2.04515 8.98011C2.04515 12.805 5.15555 15.9152 8.9806 15.9152C12.8056 15.9152 15.916 12.805 15.916 8.98011Z" fill="#0B0A24" stroke="#F2F2F2" stroke-width="0.4"/>
</svg>
