<svg width="22" height="24" viewBox="0 0 22 24" fill="none" xmlns="http://www.w3.org/2000/svg">
<path d="M20.1245 6.16981C19.86 5.76469 19.4834 5.44523 19.0406 5.25038C18.5977 5.05552 18.1077 4.99367 17.6304 5.07237C16.8596 5.18711 16.0726 5.04075 15.3947 4.65657C14.7167 4.27239 14.1867 3.67248 13.8891 2.95231C13.7147 2.499 13.4117 2.10646 13.0174 1.8229C12.623 1.53933 12.1545 1.37707 11.6692 1.35603C11.308 1.33111 10.9455 1.33111 10.5843 1.35603C10.1019 1.38282 9.63774 1.54911 9.2481 1.83469C8.85846 2.12028 8.56014 2.51288 8.38939 2.96478C8.09974 3.68426 7.57721 4.28583 6.90535 4.6733C6.23902 5.0618 5.46314 5.2196 4.69799 5.12226C4.21686 5.0473 3.72431 5.11482 3.28109 5.31648C2.83788 5.51814 2.46338 5.84513 2.20381 6.25711C1.98907 6.59082 1.79338 6.9364 1.61767 7.2922C1.42311 7.7165 1.35153 8.18689 1.41105 8.64986C1.47058 9.11283 1.65882 9.54981 1.95439 9.9111C2.41806 10.5172 2.67587 11.2557 2.69017 12.0187C2.69047 12.7918 2.43138 13.5427 1.95439 14.1512C1.66045 14.5162 1.47531 14.9567 1.42017 15.4221C1.36503 15.8875 1.44212 16.359 1.64261 16.7826C1.74238 16.9821 1.84215 17.1692 1.95439 17.3562C2.06663 17.5433 2.14145 17.6805 2.24122 17.8301C2.50572 18.2353 2.88234 18.5547 3.3252 18.7496C3.76805 18.9444 4.25802 19.0063 4.73541 18.9276C5.50616 18.8128 6.29315 18.9592 6.97111 19.3434C7.64907 19.7276 8.17905 20.3275 8.47669 21.0476C8.65108 21.501 8.95405 21.8935 9.34838 22.1771C9.74271 22.4606 10.2113 22.6229 10.6965 22.6439C11.0577 22.6689 11.4203 22.6689 11.7815 22.6439C12.2682 22.6219 12.7378 22.4578 13.1322 22.1719C13.5267 21.886 13.8289 21.4908 14.0013 21.0352C14.291 20.3157 14.8135 19.7141 15.4854 19.3267C16.1517 18.9382 16.9276 18.7804 17.6927 18.8777C18.1738 18.9527 18.6664 18.8851 19.1096 18.6835C19.5528 18.4818 19.9273 18.1548 20.1869 17.7428C20.4016 17.4091 20.5973 17.0636 20.773 16.7078C20.9676 16.2835 21.0392 15.8131 20.9797 15.3501C20.9201 14.8871 20.7319 14.4501 20.4363 14.0889C19.9606 13.4741 19.6979 12.7211 19.6881 11.9439C19.6878 11.1707 19.9468 10.4198 20.4238 9.81133C20.7178 9.44631 20.9029 9.00587 20.9581 8.54047C21.0132 8.07507 20.9361 7.60356 20.7356 7.17996C20.6358 6.98043 20.5361 6.79336 20.4238 6.6063C20.3116 6.41923 20.2243 6.31947 20.1245 6.16981Z" stroke="black" stroke-width="1.4" stroke-linecap="round" stroke-linejoin="round"/>
<path d="M11.1953 15.1988C12.962 15.1988 14.3941 13.7666 14.3941 12C14.3941 10.2334 12.962 8.80121 11.1953 8.80121C9.42867 8.80121 7.99652 10.2334 7.99652 12C7.99652 13.7666 9.42867 15.1988 11.1953 15.1988Z" stroke="black" stroke-width="1.4" stroke-linecap="round" stroke-linejoin="round"/>
</svg>
