<svg width="21" height="18" viewBox="0 0 21 18" fill="none" xmlns="http://www.w3.org/2000/svg">
<path fill-rule="evenodd" clip-rule="evenodd" d="M4.20282 9.591C4.20173 9.58535 4.20073 9.57968 4.19982 9.574L2.97982 2.254C2.85951 1.53033 2.23343 0.999849 1.49982 1H1.19482C0.918682 1 0.694824 0.776142 0.694824 0.5C0.694824 0.223858 0.918682 5.274e-08 1.19482 5.274e-08H1.50082C2.689 -0.000242451 3.71319 0.835834 3.95082 2H20.1948C20.3515 2.00027 20.499 2.07397 20.5933 2.1991C20.6876 2.32423 20.7178 2.48632 20.6748 2.637L18.6748 9.637C18.6137 9.85152 18.4179 9.99961 18.1948 10H5.28482L5.40982 10.747C5.53057 11.4703 6.15654 12.0002 6.88982 12H18.1948C18.471 12 18.6948 12.2239 18.6948 12.5C18.6948 12.7761 18.471 13 18.1948 13H6.88882C5.66672 13 4.62374 12.1165 4.42282 10.911L4.20282 9.591ZM4.11882 3L5.11882 9H17.8178L19.5318 3H4.11882ZM6.69482 18C5.59025 18 4.69482 17.1046 4.69482 16C4.69482 14.8954 5.59025 14 6.69482 14C7.79939 14 8.69482 14.8954 8.69482 16C8.69482 17.1046 7.79939 18 6.69482 18ZM6.69482 17C7.24711 17 7.69482 16.5523 7.69482 16C7.69482 15.4477 7.24711 15 6.69482 15C6.14254 15 5.69482 15.4477 5.69482 16C5.69482 16.5523 6.14254 17 6.69482 17ZM15.6948 18C14.5903 18 13.6948 17.1046 13.6948 16C13.6948 14.8954 14.5903 14 15.6948 14C16.7994 14 17.6948 14.8954 17.6948 16C17.6948 17.1046 16.7994 18 15.6948 18ZM15.6948 17C16.2471 17 16.6948 16.5523 16.6948 16C16.6948 15.4477 16.2471 15 15.6948 15C15.1425 15 14.6948 15.4477 14.6948 16C14.6948 16.5523 15.1425 17 15.6948 17Z" fill="#1A1A1A"/>
</svg>
