<svg width="18" height="18" viewBox="0 0 18 18" fill="none" xmlns="http://www.w3.org/2000/svg">
<path d="M6.50692 4.04119C6.55631 4.30501 6.81802 4.51306 7.12673 4.45533C7.42647 4.39276 7.59694 4.10535 7.54087 3.83518C7.47502 3.52102 7.16473 3.34601 6.87075 3.43369C6.60817 3.51206 6.45285 3.78322 6.50692 4.04119Z" fill="#FEC61C" stroke="#FEC61C" stroke-width="0.3"/>
<path d="M17.8678 11.4069C14.9983 3.054 15.1957 3.62629 15.1834 3.59785C14.8847 2.90655 14.3049 2.36914 13.5926 2.12335C13.4906 2.08816 7.71476 0.737071 7.54783 0.679272C7.03591 0.501974 6.32468 0.601364 5.82537 1.06059L0.875625 5.61517C0.319157 6.12699 0 6.85559 0 7.61421L0 15.6796C0 16.6301 0.769134 17.4034 1.71455 17.4034H12.3041C13.2495 17.4034 14.0186 16.6301 14.0186 15.6796V14.9L16.9702 13.6368C17.8284 13.2655 18.2276 12.2688 17.8678 11.4069ZM12.3041 16.3487H1.71455C1.3507 16.3487 1.05472 16.0485 1.05472 15.6796L1.05472 7.61421C1.05472 7.14982 1.2497 6.70409 1.5897 6.39137C5.83037 2.48934 3.20918 4.9232 6.55633 1.83644C6.73088 1.67556 6.97189 1.61094 7.21092 1.68301C7.42457 1.74682 7.04758 1.43976 12.429 6.39144C12.7689 6.70413 12.9639 7.14982 12.9639 7.61421V15.6796C12.9639 16.0485 12.6679 16.3487 12.3041 16.3487ZM16.5533 12.668L14.0186 13.7528V7.61421C14.0186 6.85559 13.6994 6.12699 13.143 5.61524L9.45687 2.22338L13.2715 3.12853C13.6879 3.27925 14.0273 3.59475 14.2076 3.99892C17.0717 12.3359 16.8785 11.7763 16.891 11.8052C17.035 12.138 16.8827 12.5255 16.5533 12.668Z" fill="#FEC61C" stroke="#FEC61C" stroke-width="0.3"/>
<path d="M8.50664 7.1122C8.23815 6.99949 7.92901 7.12591 7.81629 7.39444L5.24901 13.5132C5.10254 13.8623 5.36127 14.2448 5.73506 14.2448C5.94111 14.2448 6.13687 14.1232 6.2216 13.9213L8.78888 7.80255C8.90156 7.53395 8.77521 7.22488 8.50664 7.1122Z" fill="#FEC61C" stroke="#FEC61C" stroke-width="0.3"/>
<path d="M6.03501 8.63181C6.03501 7.61401 5.28956 6.78595 4.37326 6.78595C3.45695 6.78595 2.71155 7.61401 2.71155 8.63181C2.71155 9.64961 3.45699 10.4777 4.37329 10.4777C5.2896 10.4777 6.03501 9.64961 6.03501 8.63181ZM4.37329 9.42295C4.04426 9.42295 3.76627 9.06066 3.76627 8.63181C3.76627 8.20296 4.04422 7.84067 4.37329 7.84067C4.70237 7.84067 4.98032 8.20296 4.98032 8.63181C4.98029 9.06066 4.70233 9.42295 4.37329 9.42295Z" fill="#FEC61C" stroke="#FEC61C" stroke-width="0.3"/>
<path d="M9.69471 10.9694C8.7784 10.9694 8.03296 11.7975 8.03296 12.8153C8.03296 13.8331 8.7784 14.6611 9.69471 14.6611C10.611 14.6611 11.3565 13.8331 11.3565 12.8153C11.3565 11.7975 10.611 10.9694 9.69471 10.9694ZM9.69471 13.6064C9.36567 13.6064 9.08768 13.2441 9.08768 12.8153C9.08768 12.3864 9.36564 12.0241 9.69471 12.0241C10.0238 12.0241 10.3017 12.3864 10.3017 12.8153C10.3017 13.2441 10.0237 13.6064 9.69471 13.6064Z" fill="#FEC61C" stroke="#FEC61C" stroke-width="0.3"/>
</svg>
